# xmcd
#
# Track frame offsets: 
#        150
#        19484
#        45573
#        61673
#        79865
#        95166
#        113429
#        133412
#        149996
#        173780
#        192744
#        212518
#        235991
#        257038
#        287355
#        302338
#        332544
#
# Disc length: 4781 seconds
#
# Revision: 0
# Processed by: cddbd v1.5.2PL0 Copyright (c) Steve Scherf et al.
# Submitted via: ExactAudioCopy v1.3
#
DISCID=f912ab11
DTITLE=Various Artist - Akella Presents - vol.133 - Blues-Rock  CD2
DYEAR=2018
DGENRE=Blues
TTITLE0=I'm Alright - Bill Durst
TTITLE1=Count's 77 - Evil You Could Do
TTITLE2=Albert Castiglia - Hoodoo On Me
TTITLE3=Buck 69 - Dead End Road
TTITLE4=Koenig And The Ghost Notes - Heat On My Neck
TTITLE5=Don Griffin - Mama
TTITLE6=TBelly - Respectable Man
TTITLE7=Ali Sleeq Blues Band - That Ain't Right
TTITLE8=Christian Collin - Spirit Of The Blues
TTITLE9=Hot'n'Nasty - Land Of A Thousand Lies
TTITLE10=Lance Lopez - Tell The Truth
TTITLE11=Slackjaw - Don't Give Me No Jive
TTITLE12=Mike Onesko Band - Sookie Sookie
TTITLE13=Long John and The Killer Blues Collective - Cold Blood Blues
TTITLE14=AJ Ghent - Do The Rump!
TTITLE15=Derrick Dove and the Peacekeepers - Brand New Life
TTITLE16=Hogjaw - Redemption
EXTD=
EXTT0=
EXTT1=
EXTT2=
EXTT3=
EXTT4=
EXTT5=
EXTT6=
EXTT7=
EXTT8=
EXTT9=
EXTT10=
EXTT11=
EXTT12=
EXTT13=
EXTT14=
EXTT15=
EXTT16=
PLAYORDER=
